:FULLY-SPECIFIED
:FORCE-ALL-JOINTS-BE-3DOF
:DEGREES
356
root 9.27807 17.0765 14.1715 6.59665 8.54467 -2.05743
lfemur -16.2636 7.74334 -14.5312
ltibia 64.1691 -0 0
lfoot -4.52349 11.6024 0.00665898
ltoes -3.82794 0 0
rfemur -22.9814 4.01517 26.7588
rtibia 32.7326 -0 0
rfoot -14.5827 1.55195 -1.90225e-05
rtoes -10.7192 0 0
lowerback -6.26915 -2.15875 -1.00719
upperback -1.41197 -2.87782 2.85041
thorax 2.25212 -1.4473 3.2694
lowerneck -19.5593 -6.03057 -13.3677
upperneck 20.475 -7.8692 14.0783
head 10.9793 -3.056 6.17265
lclavicle -4.0171e-16 -7.75262e-15 0
lhumerus -37.7437 -21.0013 99.4548
lradius 25.179 -0 0
lwrist 6.57998 0 0
lhand -10.3139 -20.1998 0.0119893
lfingers 7.12502 0 0
lthumb 15.6808 9.1757 0.00962015
rclavicle -4.0171e-16 -7.75262e-15 0
rhumerus -41.6428 12.7385 -84.8648
rradius 39.3214 -0 0
rwrist -23.0714 0 0
rhand -30.8021 -29.2629 0.00312554
rfingers 7.12502 0 0
rthumb -4.09207 -59.2033 0.00301675
357
root 9.27802 17.0812 14.2914 6.57996 8.30978 -2.10767
lfemur -17.7019 7.62726 -14.8472
ltibia 64.5074 -0 0
lfoot -5.40447 11.4814 0.0110437
ltoes -3.70546 0 0
rfemur -22.3412 4.23672 26.9083
rtibia 32.4366 -0 0
rfoot -14.9012 1.57552 1.65424e-05
rtoes -11.1459 0 0
lowerback -6.22377 -1.99986 -0.922017
upperback -1.33509 -2.67249 2.83153
thorax 2.28759 -1.34524 3.21955
lowerneck -19.7468 -6.06992 -13.3387
upperneck 20.5648 -7.89837 13.9949
head 11.0479 -3.06876 6.13313
lclavicle 1.65654e-15 -3.57813e-15 0
lhumerus -38.4831 -21.3547 99.5643
lradius 25.6382 -0 0
lwrist 7.39579 0 0
lhand -11.3534 -20.6296 0.0232759
lfingers 7.12502 0 0
lthumb 14.6788 8.81286 0.0186034
rclavicle 1.65654e-15 -3.57813e-15 0
rhumerus -41.0699 13.3365 -84.9191
rradius 39.6952 -0 0
rwrist -23.1036 0 0
rhand -30.6866 -28.5036 0.00659701
rfingers 7.12502 0 0
rthumb -3.98055 -58.446 0.00636041
358
root 9.27798 17.0859 14.4112 6.55249 8.06486 -2.15414
lfemur -19.1228 7.48112 -15.1629
ltibia 64.7206 -0 0
lfoot -6.21256 11.3186 0.0120705
ltoes -3.62718 0 0
rfemur -21.7227 4.47472 27.0517
rtibia 32.1879 -0 0
rfoot -15.238 1.59873 6.59731e-05
rtoes -11.498 0 0
lowerback -6.16131 -1.84149 -0.847971
upperback -1.24804 -2.46732 2.81745
thorax 2.32577 -1.24347 3.18129
lowerneck -19.9633 -6.11092 -13.3119
upperneck 20.6628 -7.92591 13.9099
head 11.1248 -3.08007 6.09384
lclavicle 3.71479e-15 5.9635e-16 0
lhumerus -39.2135 -21.7212 99.6966
lradius 26.104 -0 0
lwrist 8.25954 0 0
lhand -12.5462 -21.0905 0.0276601
lfingers 7.12502 0 0
lthumb 13.5293 8.42874 0.0220846
rclavicle 3.71479e-15 5.9635e-16 0
rhumerus -40.4574 13.9417 -84.9481
rradius 40.0456 -0 0
rwrist -23.1133 0 0
rhand -30.5226 -27.6204 0.00817999
rfingers 7.12502 0 0
rthumb -3.82214 -57.5656 0.00788206
359
root 9.27794 17.0905 14.5311 6.5204 7.81171 -2.19859
lfemur -20.5204 7.32086 -15.4714
ltibia 64.8217 -0 0
lfoot -6.98297 11.1526 0.00979751
ltoes -3.60056 0 0
rfemur -21.1212 4.71624 27.1918
rtibia 31.9742 -0 0
rfoot -15.5837 1.62292 9.5482e-05
rtoes -11.8041 0 0
lowerback -6.09259 -1.68545 -0.781638
upperback -1.16043 -2.26475 2.80621
thorax 2.36235 -1.14305 3.15017
lowerneck -20.1685 -6.14795 -13.2921
upperneck 20.7549 -7.94916 13.8356
head 11.1975 -3.08926 6.06047
lclavicle 5.77304e-15 4.77083e-15 0
lhumerus -39.9292 -22.0381 99.8172
lradius 26.5568 -0 0
lwrist 9.10627 0 0
lhand -13.7203 -21.5355 0.023053
lfingers 7.12502 0 0
lthumb 12.3978 8.05948 0.0184433
rclavicle 5.77304e-15 4.77083e-15 0
rhumerus -39.8333 14.5331 -84.9582
rradius 40.3816 -0 0
rwrist -23.1079 0 0
rhand -30.3437 -26.7465 0.0068603
rfingers 7.12502 0 0
rthumb -3.64933 -56.6947 0.00660814
360
root 9.27789 17.0952 14.651 6.48984 7.55216 -2.24286
lfemur -21.8895 7.16278 -15.7667
ltibia 64.8231 -0 0
lfoot -7.75094 11.0218 0.00516963
ltoes -3.63311 0 0
rfemur -20.5318 4.94825 27.3314
rtibia 31.7833 -0 0
rfoot -15.929 1.64941 7.95313e-05
rtoes -12.093 0 0
lowerback -6.02836 -1.53357 -0.719668
upperback -1.08188 -2.0672 2.79577
thorax 2.39302 -1.04499 3.12169
lowerneck -20.3221 -6.17543 -13.2837
upperneck 20.8269 -7.96548 13.7844
head 11.2533 -3.09565 6.03872
lclavicle 7.83129e-15 8.94532e-15 0
lhumerus -40.6231 -22.243 99.89
lradius 26.9771 -0 0
lwrist 9.87104 0 0
lhand -14.7038 -21.9175 0.0118684
lfingers 7.12502 0 0
lthumb 11.4499 7.74123 0.00955581
rclavicle 7.83129e-15 8.94532e-15 0
rhumerus -39.2262 15.0897 -84.957
rradius 40.7122 -0 0
rwrist -23.0946 0 0
rhand -30.1835 -26.0149 0.00338156
rfingers 7.12502 0 0
rthumb -3.49462 -55.9659 0.00325654
361
root 9.27785 17.0998 14.7709 6.46698 7.28803 -2.28882
lfemur -23.2249 7.02348 -16.0439
ltibia 64.7377 0 0
lfoot -8.55172 10.9646 0
ltoes -3.7323 0 0
rfemur -19.9499 5.15766 27.4728
rtibia 31.6029 0 0
rfoot -16.2646 1.6795 0
rtoes -12.3935 0 0
lowerback -5.97938 -1.38764 -0.658774
upperback -1.02203 -1.87708 2.78402
thorax 2.41345 -0.950348 3.09138
lowerneck -20.3838 -6.18781 -13.2916
upperneck 20.8645 -7.97231 13.769
head 11.2798 -3.0986 6.03427
lclavicle 9.88954e-15 1.31198e-14 0
lhumerus -41.2872 -22.2749 99.8767
lradius 27.3454 0 0
lwrist 10.4889 0 0
lhand -15.3249 -22.1896 0
lfingers 7.12502 0 0
lthumb 10.8513 7.51001 0
rclavicle 9.88954e-15 1.31198e-14 0
rhumerus -38.665 15.5906 -84.9531
rradius 41.0465 0 0
rwrist -23.0807 0 0
rhand -30.0756 -25.559 0
rfingers 7.12502 0 0
rthumb -3.39045 -55.5118 0
362
root 9.28031 17.0933 14.8898 6.4529 7.01804 -2.33298
lfemur -24.5431 6.90712 -16.3111
ltibia 64.5739 -0 0
lfoot -9.41875 10.993 -0.00429281
ltoes -3.97063 0 0
rfemur -19.392 5.354 27.6135
rtibia 31.4622 -0 0
rfoot -16.6028 1.70228 0.000132917
rtoes -12.71 0 0
lowerback -5.94485 -1.25193 -0.60451
upperback -0.984173 -1.69969 2.76979
thorax 2.42024 -0.861741 3.06079
lowerneck -20.3222 -6.17789 -13.3368
upperneck 20.8483 -7.96306 13.8218
head 11.2652 -3.09444 6.06396
lclavicle 1.01546e-14 7.62008e-15 0
lhumerus -41.9264 -22.0965 99.75
lradius 27.674 -0 0
lwrist 10.9552 0 0
lhand -15.5148 -22.3333 -0.00709935
lfingers 7.12502 0 0
lthumb 10.6683 7.38019 -0.00586113
rclavicle 1.01546e-14 7.62008e-15 0
rhumerus -38.1527 16.0429 -84.9522
rradius 41.3871 -0 0
rwrist -23.0547 0 0
rhand -30.0062 -25.4576 -0.00154996
rfingers 7.12502 0 0
rthumb -3.3234 -55.4116 -0.00148892
363
root 9.28277 17.0869 15.0087 6.44286 6.74048 -2.37317
lfemur -25.8516 6.80185 -16.5748
ltibia 64.3232 -0 0
lfoot -10.3305 11.0788 -0.0071042
ltoes -4.3566 0 0
rfemur -18.8653 5.54988 27.7507
rtibia 31.3767 -0 0
rfoot -16.9534 1.71451 0.000485955
rtoes -13.0204 0 0
lowerback -5.91607 -1.12584 -0.560664
upperback -0.961257 -1.53417 2.75441
thorax 2.4162 -0.778888 3.03381
lowerneck -20.1634 -6.14854 -13.4198
upperneck 20.7857 -7.93845 13.9395
head 11.2172 -3.08292 6.12659
lclavicle 1.04196e-14 2.12037e-15 0
lhumerus -42.5469 -21.7512 99.5308
lradius 27.9809 -0 0
lwrist 11.3211 0 0
lhand -15.3972 -22.3824 -0.0090075
lfingers 7.12502 0 0
lthumb 10.7818 7.32581 -0.00753824
rclavicle 1.04196e-14 2.12037e-15 0
rhumerus -37.6671 16.4645 -84.9499
rradius 41.7272 -0 0
rwrist -23.0086 0 0
rhand -29.9455 -25.62 -0.00153335
rfingers 7.12502 0 0
rthumb -3.2648 -55.575 -0.00146434
364
root 9.28523 17.0804 15.1275 6.43435 6.45653 -2.41328
lfemur -27.1323 6.70086 -16.8275
ltibia 63.973 -0 0
lfoot -11.2399 11.1997 -0.00760759
ltoes -4.80173 0 0
rfemur -18.351 5.73659 27.8864
rtibia 31.314 -0 0
rfoot -17.3037 1.72902 0.000749647
rtoes -13.3136 0 0
lowerback -5.89189 -1.00384 -0.521327
upperback -0.94739 -1.37369 2.73952
thorax 2.40627 -0.698435 3.00939
lowerneck -19.953 -6.10935 -13.5143
upperneck 20.7031 -7.90682 14.0804
head 11.1524 -3.06858 6.20082
lclavicle 1.06847e-14 -3.37935e-15 0
lhumerus -43.1435 -21.2987 99.2536
lradius 28.2554 -0 0
lwrist 11.605 0 0
lhand -15.0892 -22.3688 -0.00731301
lfingers 7.12502 0 0
lthumb 11.0788 7.32227 -0.00622613
rclavicle 1.06847e-14 -3.37935e-15 0
rhumerus -37.1991 16.8511 -84.9401
rradius 42.062 -0 0
rwrist -22.9546 0 0
rhand -29.9035 -25.9248 -0.00041197
rfingers 7.12502 0 0
rthumb -3.22427 -55.8805 -0.000375099
